<svg width="1024" height="1024" viewBox="0 0 1024 1024" fill="none" xmlns="http://www.w3.org/2000/svg">
<style>
  :root {
    --rmp-icon-background: var(--op-color-primary-base);
    --rmp-icon-mark: var(--op-color-primary-on-base);
  }
</style>
<rect width="1024" height="1024" fill="var(--rmp-icon-background)"/>
<path d="M266.913 234.54C266.913 227.451 272.636 221.728 279.725 221.728H532.245C606.041 221.728 663.266 242.44 701.403 280.619C733.731 312.948 751.155 358.558 751.155 413.307V414.972C751.155 508.669 700.591 567.56 626.753 594.935L754.828 782.2C760.636 790.699 754.572 802.272 744.237 802.272H626.112C621.842 802.272 617.827 800.137 615.436 796.592L497.397 620.302C495.817 617.953 493.126 616.501 490.308 616.501H403.059C398.319 616.501 394.518 620.345 394.518 625.042V789.417C394.518 796.507 388.796 802.229 381.707 802.229H279.725C272.636 802.229 266.913 796.507 266.913 789.417V234.54ZM523.96 503.672C586.14 503.672 621.799 470.49 621.799 421.592V419.926C621.799 365.177 583.663 336.991 521.44 336.991H403.102C398.362 336.991 394.561 340.835 394.561 345.532V495.131C394.561 499.871 398.405 503.672 403.102 503.672H523.917H523.96Z" fill="var(--rmp-icon-mark)"/>
</svg>
