<svg width="30" height="30" viewBox="0 0 30 30" fill="none" xmlns="http://www.w3.org/2000/svg">
<rect width="30" height="30" fill="#2A83F7"/>
<g transform="scale(0.029296875)">
<path d="M267.802 234.54C267.802 227.451 273.524 221.728 280.614 221.728H533.133C606.929 221.728 664.155 242.44 702.292 280.619C734.62 312.948 752.044 358.558 752.044 413.307V414.972C752.044 508.669 701.48 567.56 627.642 594.935L755.717 782.2C761.525 790.699 755.46 802.272 745.126 802.272H627.001C622.73 802.272 618.716 800.137 616.325 796.592L498.285 620.302C496.705 617.953 494.015 616.501 491.196 616.501H403.948C399.208 616.501 395.407 620.345 395.407 625.042V789.417C395.407 796.507 389.684 802.229 382.595 802.229H280.614C273.524 802.229 267.802 796.507 267.802 789.417V234.54ZM524.849 503.672C587.028 503.672 622.688 470.49 622.688 421.592V419.926C622.688 365.177 584.551 336.991 522.329 336.991H403.991C399.25 336.991 395.45 340.835 395.45 345.532V495.131C395.45 499.871 399.293 503.672 403.991 503.672H524.806H524.849Z" fill="#FEFEFE"/>
</g>
</svg>
